<svg width="88" height="89" viewBox="0 0 88 89" fill="none" xmlns="http://www.w3.org/2000/svg">
<g clip-path="url(#clip0_93_10865)">
<mask id="mask0_93_10865" style="mask-type:luminance" maskUnits="userSpaceOnUse" x="0" y="0" width="88" height="89">
<path d="M87.9929 0.194336H0.00708008V88.1802H87.9929V0.194336Z" fill="white"/>
</mask>
<g mask="url(#mask0_93_10865)">
<path d="M71.1251 33.4964C70.8682 33.2412 70.7248 32.8946 70.7257 32.5329V23.7088C70.7213 20.2484 67.9154 17.4434 64.4549 17.4398H55.6326C55.2727 17.4398 54.9278 17.2964 54.6736 17.0422L48.4354 10.8048C45.9559 8.43362 42.0485 8.43275 39.5682 10.8031L33.3229 17.0448C33.0686 17.2973 32.7255 17.4398 32.3674 17.4398H23.5451C20.0846 17.4434 17.2787 20.2484 17.2743 23.7088V32.5329C17.2752 32.8937 17.1327 33.2395 16.8775 33.4937L10.6332 39.7337C8.19595 42.1867 8.19683 46.1479 10.6358 48.5991L16.8749 54.8347C17.1318 55.0898 17.2752 55.4374 17.2743 55.799V64.6222C17.2787 68.0827 20.0846 70.8877 23.5451 70.8912H32.3674C32.7273 70.8912 33.0722 71.0355 33.3264 71.2898L39.5646 77.5262C42.0098 79.9749 45.9788 79.9784 48.4274 77.5333C48.4292 77.5315 48.4301 77.5297 48.4318 77.528L54.6771 71.2863C54.9314 71.0338 55.2754 70.8912 55.6335 70.8912H64.4549C67.9154 70.8877 70.7213 68.0827 70.7257 64.6222V55.799C70.7248 55.4374 70.8682 55.0898 71.1251 54.8347L77.3669 48.5974C79.8041 46.1443 79.8032 42.1832 77.3642 39.7319L71.1251 33.4964Z" fill="#008000"/>
<path d="M43.9999 21.2451C56.6584 21.2451 66.9202 31.5069 66.9202 44.1654C66.9202 56.8239 56.6584 67.0857 43.9999 67.0857C31.3414 67.0857 21.0796 56.8239 21.0796 44.1654C21.0796 31.5069 31.3414 21.2451 43.9999 21.2451Z" fill="#EDEBEA"/>
<path d="M36.7412 44.2973L41.1405 49.4665L51.5888 38.9082" stroke="#008000" stroke-width="6.15901" stroke-linecap="round" stroke-linejoin="round"/>
</g>
</g>
<defs>
<clipPath id="clip0_93_10865">
<rect width="87.9859" height="87.9859" fill="white" transform="translate(0.00708008 0.194336)"/>
</clipPath>
</defs>
</svg>
